<svg width="1055" height="606" viewBox="0 0 1055 606" fill="none" xmlns="http://www.w3.org/2000/svg">
	<path d="M690.7 499.7L790.9 557" stroke="url(#paint0_linear_1_78)" stroke-width="2" stroke-miterlimit="10" />
	<path d="M972.5 451.8L872.2 394" stroke="url(#paint1_linear_1_78)" stroke-width="2" stroke-miterlimit="10" />
	<path d="M913.4 312.4L1054 288.6" stroke="url(#paint2_linear_1_78)" stroke-width="2" stroke-miterlimit="10" />
	<path d="M994.8 149.4L853.6 173.5" stroke="url(#paint3_linear_1_78)" stroke-width="2" stroke-miterlimit="10" />
	<path d="M755.1 116.1L796.2 34.7" stroke="url(#paint4_linear_1_78)" stroke-width="2" stroke-miterlimit="10" />
	<path d="M554.7 1L512 81.5" stroke="url(#paint5_linear_1_78)" stroke-width="2" stroke-miterlimit="10" />
	<path d="M371.5 105.8L271.3 48" stroke="url(#paint6_linear_1_78)" stroke-width="2" stroke-miterlimit="10" />
	<path d="M89.7 153.6L189.9 210.9" stroke="url(#paint7_linear_1_78)" stroke-width="2" stroke-miterlimit="10" />
	<path d="M149.2 292.6L8 316.7" stroke="url(#paint8_linear_1_78)" stroke-width="2" stroke-miterlimit="10" />
	<path d="M67.8 455.6L208.4 431.8" stroke="url(#paint9_linear_1_78)" stroke-width="2" stroke-miterlimit="10" />
	<path d="M308.5 489.7L268.2 571.3" stroke="url(#paint10_linear_1_78)" stroke-width="2" stroke-miterlimit="10" />
	<path d="M508.9 604.8L550 523.4" stroke="url(#paint11_linear_1_78)" stroke-width="2" stroke-miterlimit="10" />
	<path d="M731.1 418.2L630.9 360.4L489.7 384.5L449.3 466L549.5 523.3L690 499.6L731.1 418.2Z" stroke="#0B5B68"
		stroke-width="2" stroke-miterlimit="10" />
	<path d="M490.3 384L390 326.2L248.8 350.3L208.5 431.9L308.7 489.2L449.3 465.4L490.3 384Z" stroke="#0B5B68"
		stroke-width="2" stroke-miterlimit="10" />
	<path d="M420.2 238.4L330.9 187.3L189.7 211.4L149.4 293L249.5 350.3L390.1 326.5" stroke="#0B5B68" stroke-width="2"
		stroke-miterlimit="10" />
	<path d="M584.2 197.3L612.3 139.4L512.1 81.6L370.9 105.7L330.6 187.3L420.3 238.5" stroke="#0B5B68" stroke-width="2"
		stroke-miterlimit="10" />
	<path d="M913.4 313L813.2 255.2L672 279.3L631.7 360.9L731.8 418.2L872.4 394.4L913.4 313Z" stroke="#0B5B68"
		stroke-width="2" stroke-miterlimit="10" />
	<path d="M672.6 278.8L813.2 255L854.3 173.6L754 115.8L612.8 139.9L584.2 197.3" stroke="#0B5B68" stroke-width="2"
		stroke-miterlimit="10" />
	<path
		d="M730.5 432.1C737.4 432.1 742.9 426.5 742.9 419.7C742.9 412.9 737.3 407.3 730.5 407.3C723.7 407.3 718.1 412.9 718.1 419.7C718.1 426.5 723.6 432.1 730.5 432.1Z"
		fill="url(#paint12_radial_1_78)" />
	<path
		d="M856.1 180.5C860.5 179.3 863.1 174.9 862 170.6C860.9 166.4 856.3 163.9 851.9 165.1C847.5 166.3 844.9 170.7 846 175C847.2 179.3 851.7 181.7 856.1 180.5Z"
		fill="url(#paint13_radial_1_78)" />
	<path
		d="M247.3 362.2C254.2 362.2 259.7 356.6 259.7 349.8C259.7 343 254.1 337.4 247.3 337.4C240.5 337.4 234.9 343 234.9 349.8C234.9 356.6 240.5 362.2 247.3 362.2Z"
		fill="url(#paint14_radial_1_78)" />
	<path
		d="M37.8 322.8C44.7 322.8 50.2 317.2 50.2 310.4C50.2 303.6 44.6 298 37.8 298C31 298 25.4 303.6 25.4 310.4C25.4 317.3 31 322.8 37.8 322.8Z"
		fill="url(#paint15_radial_1_78)" />
	<path
		d="M586.4 135.9C593.3 135.9 598.8 130.3 598.8 123.5C598.8 116.7 593.2 111.1 586.4 111.1C579.6 111.1 574 116.7 574 123.5C574 130.3 579.6 135.9 586.4 135.9Z"
		fill="url(#paint16_radial_1_78)" />
	<path
		d="M341.5 98C347.3 98 352 93.3 352 87.5C352 81.7 347.3 77 341.5 77C335.7 77 331 81.7 331 87.5C331 93.3 335.7 98 341.5 98Z"
		fill="url(#paint17_radial_1_78)" />
	<g filter="url(#filter0_d_1_78)">
		<path
			d="M783.4 552.8L696 503C692.6 501.1 691.4 496.9 693.1 493.5L728.5 424.3C730.2 420.9 729 416.7 725.7 414.8L636.5 364.5C633.7 363 632 360 632 356.9V331"
			stroke="url(#paint18_linear_1_78)" stroke-width="3" stroke-linecap="round" stroke-linejoin="round" />
		<path
			d="M21.8 312.4L142.5 294.1C147 293.4 151.6 294.3 155.5 296.6L242.7 346.8C246.7 349.1 251.3 349.9 255.8 349.2L385.9 327.7C389.6 327.1 392.3 323.9 392.3 320.1V297.3"
			stroke="url(#paint19_linear_1_78)" stroke-width="3" stroke-linecap="round" stroke-linejoin="round" />
		<path d="M248.8 350.3L213 422.7C210.1 428.5 204.7 432.5 198.3 433.6L148 442" stroke="url(#paint20_linear_1_78)"
			stroke-width="3" stroke-linecap="round" stroke-linejoin="round" />
		<path
			d="M584.2 197.4L608.6 146.2C610.7 141.8 609 136.6 604.8 134.1C604.8 134.1 548.5 101.7 512.5 80.9M542 25C542 25 524 59.1 512.5 81C462.4 89.7 386.8 102.8 373.1 105.1C371.7 105.3 370.3 105.1 369.1 104.4L282 54"
			stroke="url(#paint21_linear_1_78)" stroke-width="3" stroke-linecap="round" stroke-linejoin="round" />
		<path
			d="M671 252.5V274.3C671 276.8 673.2 278.6 675.7 278.2L809 256.2C811.5 255.8 813.7 254.2 814.8 251.9L852.7 177.1C853.8 174.8 856 173.3 858.5 172.8L964.5 154.5"
			stroke="url(#paint22_linear_1_78)" stroke-width="3" stroke-linecap="round" stroke-linejoin="round" />
		<path
			d="M667.8 247.9L574.2 193.9C573 193.2 571.6 193 570.3 193.2L434 216.4C432.2 216.7 430.6 217.9 429.8 219.6L393.2 293.6C391.8 296.4 392.9 299.7 395.5 301.2L489.1 354.7C490.3 355.4 491.6 355.6 493 355.4L628.6 332.5C630.4 332.2 632 331 632.8 329.4L670.1 255.6C671.4 252.8 670.4 249.4 667.8 247.9Z"
			stroke="#21FA90" stroke-width="3" stroke-miterlimit="10" stroke-linecap="round" />
	</g>
	<defs>
		<filter id="filter0_d_1_78" x="10.2998" y="13.4997" width="965.7" height="550.801" filterUnits="userSpaceOnUse"
			color-interpolation-filters="sRGB">
			<feFlood flood-opacity="0" result="BackgroundImageFix" />
			<feColorMatrix in="SourceAlpha" type="matrix" values="0 0 0 0 0 0 0 0 0 0 0 0 0 0 0 0 0 0 127 0"
				result="hardAlpha" />
			<feOffset />
			<feGaussianBlur stdDeviation="5" />
			<feColorMatrix type="matrix" values="0 0 0 0 0.129412 0 0 0 0 0.980392 0 0 0 0 0.564706 0 0 0 0.8 0" />
			<feBlend mode="normal" in2="BackgroundImageFix" result="effect1_dropShadow_1_78" />
			<feBlend mode="normal" in="SourceGraphic" in2="effect1_dropShadow_1_78" result="shape" />
		</filter>
		<linearGradient id="paint0_linear_1_78" x1="690.9" y1="500.1" x2="786.4" y2="554.1"
			gradientUnits="userSpaceOnUse">
			<stop stop-color="#0B5B68" />
			<stop offset="1" stop-color="#00283D" stop-opacity="0" />
		</linearGradient>
		<linearGradient id="paint1_linear_1_78" x1="872.1" y1="393.8" x2="972.3" y2="451.9"
			gradientUnits="userSpaceOnUse">
			<stop stop-color="#0B5B68" />
			<stop offset="1" stop-color="#00283D" stop-opacity="0" />
		</linearGradient>
		<linearGradient id="paint2_linear_1_78" x1="913.1" y1="312.7" x2="1045.6" y2="289.7"
			gradientUnits="userSpaceOnUse">
			<stop stop-color="#0B5B68" />
			<stop offset="1" stop-color="#00283D" stop-opacity="0" />
		</linearGradient>
		<linearGradient id="paint3_linear_1_78" x1="853.9" y1="172.1" x2="992.4" y2="151.1"
			gradientUnits="userSpaceOnUse">
			<stop stop-color="#0B5B68" />
			<stop offset="1" stop-color="#00283D" stop-opacity="0" />
		</linearGradient>
		<linearGradient id="paint4_linear_1_78" x1="754.1" y1="118" x2="795.1" y2="37" gradientUnits="userSpaceOnUse">
			<stop stop-color="#0B5B68" />
			<stop offset="1" stop-color="#00283D" stop-opacity="0" />
		</linearGradient>
		<linearGradient id="paint5_linear_1_78" x1="512.7" y1="81.4" x2="546.7" y2="15.4"
			gradientUnits="userSpaceOnUse">
			<stop stop-color="#0B5B68" />
			<stop offset="1" stop-color="#00283D" stop-opacity="0" />
		</linearGradient>
		<linearGradient id="paint6_linear_1_78" x1="372.9" y1="104.3" x2="263.9" y2="46.3"
			gradientUnits="userSpaceOnUse">
			<stop stop-color="#0B5B68" />
			<stop offset="1" stop-color="#00283D" stop-opacity="0" />
		</linearGradient>
		<linearGradient id="paint7_linear_1_78" x1="190.1" y1="210.9" x2="90.1" y2="153.9"
			gradientUnits="userSpaceOnUse">
			<stop stop-color="#0B5B68" />
			<stop offset="1" stop-color="#00283D" stop-opacity="0" />
		</linearGradient>
		<linearGradient id="paint8_linear_1_78" x1="149.3" y1="295.3" x2="12.8" y2="313.3"
			gradientUnits="userSpaceOnUse">
			<stop stop-color="#0B5B68" />
			<stop offset="1" stop-color="#00283D" stop-opacity="0" />
		</linearGradient>
		<linearGradient id="paint9_linear_1_78" x1="208" y1="431.9" x2="104.5" y2="449.4"
			gradientUnits="userSpaceOnUse">
			<stop stop-color="#0B5B68" />
			<stop offset="1" stop-color="#00283D" stop-opacity="0" />
		</linearGradient>
		<linearGradient id="paint10_linear_1_78" x1="311.5" y1="488.9" x2="269.5" y2="564.4"
			gradientUnits="userSpaceOnUse">
			<stop stop-color="#0B5B68" />
			<stop offset="1" stop-color="#00283D" stop-opacity="0" />
		</linearGradient>
		<linearGradient id="paint11_linear_1_78" x1="550.6" y1="524.6" x2="507.6" y2="605"
			gradientUnits="userSpaceOnUse">
			<stop stop-color="#0B5B68" />
			<stop offset="1" stop-color="#012B40" stop-opacity="0" />
		</linearGradient>
		<radialGradient id="paint12_radial_1_78" cx="0" cy="0" r="1" gradientUnits="userSpaceOnUse"
			gradientTransform="translate(731.2 420.04) scale(12.4 12.4)">
			<stop stop-color="#21FA90" />
			<stop offset="0.2" stop-color="#21FA90" stop-opacity="0.9" />
			<stop offset="0.4" stop-color="#21FA90" stop-opacity="0.8" />
			<stop offset="0.5" stop-color="#21FA90" stop-opacity="0.7" />
			<stop offset="0.7" stop-color="#21FA90" stop-opacity="0.5" />
			<stop offset="0.8" stop-color="#21FA90" stop-opacity="0.3" />
			<stop offset="1" stop-color="#21FA90" stop-opacity="0" />
		</radialGradient>
		<radialGradient id="paint13_radial_1_78" cx="0" cy="0" r="1" gradientUnits="userSpaceOnUse"
			gradientTransform="translate(855.458 171.358) rotate(-0.5) scale(8.2 8)">
			<stop stop-color="#21FA90" />
			<stop offset="1" stop-color="#21FA90" stop-opacity="0" />
		</radialGradient>
		<radialGradient id="paint14_radial_1_78" cx="0" cy="0" r="1" gradientUnits="userSpaceOnUse"
			gradientTransform="translate(248 350.24) scale(12.4)">
			<stop stop-color="#21FA90" />
			<stop offset="0.2" stop-color="#21FA90" stop-opacity="0.9" />
			<stop offset="0.4" stop-color="#21FA90" stop-opacity="0.8" />
			<stop offset="0.5" stop-color="#21FA90" stop-opacity="0.6" />
			<stop offset="0.7" stop-color="#21FA90" stop-opacity="0.5" />
			<stop offset="0.8" stop-color="#21FA90" stop-opacity="0.2" />
			<stop offset="1" stop-color="#21FA90" stop-opacity="0" />
		</radialGradient>
		<radialGradient id="paint15_radial_1_78" cx="0" cy="0" r="1" gradientUnits="userSpaceOnUse"
			gradientTransform="translate(38.6 310.84) scale(12.4 12.4)">
			<stop stop-color="#21FA90" />
			<stop offset="0.1" stop-color="#21FA90" stop-opacity="0.9" />
			<stop offset="0.4" stop-color="#21FA90" stop-opacity="0.6" />
			<stop offset="0.6" stop-color="#21FA90" stop-opacity="0.3" />
			<stop offset="0.8" stop-color="#21FA90" stop-opacity="0.2" />
			<stop offset="0.9" stop-color="#21FA90" stop-opacity="0" />
			<stop offset="1" stop-color="#21FA90" stop-opacity="0" />
		</radialGradient>
		<radialGradient id="paint16_radial_1_78" cx="0" cy="0" r="1" gradientUnits="userSpaceOnUse"
			gradientTransform="translate(1095.6 123.84) scale(12.4 12.4)">
			<stop stop-color="#21FA90" />
			<stop offset="0.1" stop-color="#21FA90" stop-opacity="0.9" />
			<stop offset="0.4" stop-color="#21FA90" stop-opacity="0.6" />
			<stop offset="0.6" stop-color="#21FA90" stop-opacity="0.3" />
			<stop offset="0.8" stop-color="#21FA90" stop-opacity="0.2" />
			<stop offset="0.9" stop-color="#21FA90" stop-opacity="0" />
			<stop offset="1" stop-color="#21FA90" stop-opacity="0" />
		</radialGradient>
		<radialGradient id="paint17_radial_1_78" cx="0" cy="0" r="1" gradientUnits="userSpaceOnUse"
			gradientTransform="translate(341.6 87.4) scale(10.5)">
			<stop stop-color="#21FA90" />
			<stop offset="0.1" stop-color="#21FA90" stop-opacity="0.9" />
			<stop offset="0.4" stop-color="#21FA90" stop-opacity="0.6" />
			<stop offset="0.6" stop-color="#21FA90" stop-opacity="0.3" />
			<stop offset="0.8" stop-color="#21FA90" stop-opacity="0.2" />
			<stop offset="0.9" stop-color="#21FA90" stop-opacity="0" />
			<stop offset="1" stop-color="#21FA90" stop-opacity="0" />
		</radialGradient>
		<linearGradient id="paint18_linear_1_78" x1="766.1" y1="560.6" x2="640.1" y2="329.1"
			gradientUnits="userSpaceOnUse">
			<stop offset="0.2" stop-color="#21FA90" stop-opacity="0" />
			<stop offset="1" stop-color="#21FA90" />
		</linearGradient>
		<linearGradient id="paint19_linear_1_78" x1="20.3" y1="321.7" x2="393.8" y2="321.7"
			gradientUnits="userSpaceOnUse">
			<stop stop-color="#21FA90" stop-opacity="0" />
			<stop offset="1" stop-color="#21FA90" />
		</linearGradient>
		<linearGradient id="paint20_linear_1_78" x1="146.3" y1="422.8" x2="264.8" y2="375.8"
			gradientUnits="userSpaceOnUse">
			<stop stop-color="#21FA90" stop-opacity="0" />
			<stop offset="1" stop-color="#21FA90" />
		</linearGradient>
		<linearGradient id="paint21_linear_1_78" x1="483.4" y1="227.7" x2="435.4" y2="61.7"
			gradientUnits="userSpaceOnUse">
			<stop stop-color="#21FA90" />
			<stop offset="1" stop-color="#21FA90" stop-opacity="0" />
		</linearGradient>
		<linearGradient id="paint22_linear_1_78" x1="679.8" y1="277.1" x2="918.3" y2="180.1"
			gradientUnits="userSpaceOnUse">
			<stop stop-color="#21FA90" />
			<stop offset="1" stop-color="#21FA90" stop-opacity="0" />
		</linearGradient>
	</defs>
</svg>