<svg xmlns="http://www.w3.org/2000/svg" version="1.1" xmlns:xlink="http://www.w3.org/1999/xlink" xmlns:svgjs="http://svgjs.dev/svgjs" width="1000" height="623" viewBox="0 0 1000 623"><g transform="matrix(1,0,0,1,-0.6060606060606233,0.2522267206477409)"><svg viewBox="0 0 396 247" data-background-color="#ffffff" preserveAspectRatio="xMidYMid meet" height="623" width="1000" xmlns="http://www.w3.org/2000/svg" xmlns:xlink="http://www.w3.org/1999/xlink"><g id="tight-bounds" transform="matrix(1,0,0,1,0.2400000000000091,-0.09999999999999432)"><svg viewBox="0 0 395.52 247.2" height="247.2" width="395.52"><g><svg></svg></g><g><svg viewBox="0 0 395.52 247.2" height="247.2" width="395.52"><g transform="matrix(1,0,0,1,85.3862076923077,47.215199999999996)"><svg viewBox="0 0 224.74758461538457 152.7696" height="152.7696" width="224.74758461538457"><g><svg viewBox="0 0 224.74758461538457 152.7696" height="152.7696" width="224.74758461538457"><g><svg viewBox="0 0 224.74758461538457 152.7696" height="152.7696" width="224.74758461538457"><g><svg viewBox="0 0 224.74758461538457 152.7696" height="152.7696" width="224.74758461538457"><g><svg viewBox="0 0 224.74758461538457 152.7696" height="152.7696" width="224.74758461538457" id="textblock"><g><svg viewBox="0 0 224.74758461538457 152.7696" height="152.7696" width="224.74758461538457"><g transform="matrix(1,0,0,1,0,0)"><svg width="224.74758461538457" viewBox="1.5 -35.70000076293945 53.54999923706055 36.400001525878906" height="152.7696" data-palette-color="#ee3e38"><path d="M16.35 0.7Q12.05 0.7 8.68-1.55 5.3-3.8 3.4-7.93 1.5-12.05 1.5-17.5L1.5-17.5Q1.5-22.95 3.4-27.08 5.3-31.2 8.68-33.45 12.05-35.7 16.35-35.7L16.35-35.7Q20.65-35.7 24-33.45 27.35-31.2 29.25-27.08 31.15-22.95 31.15-17.5L31.15-17.5Q31.15-12.05 29.25-7.93 27.35-3.8 24-1.55 20.65 0.7 16.35 0.7L16.35 0.7ZM16.35-3.85Q21.15-3.85 23.73-7.68 26.3-11.5 26.3-17.5L26.3-17.5Q26.3-23.5 23.73-27.33 21.15-31.15 16.35-31.15L16.35-31.15Q11.55-31.15 8.95-27.33 6.35-23.5 6.35-17.5L6.35-17.5Q6.35-11.5 8.95-7.68 11.55-3.85 16.35-3.85L16.35-3.85ZM35.95 0L35.95-35 54.65-35 54.65-30.85 40.5-30.85 40.5-20.4 51.7-20.4 51.7-16.2 40.5-16.2 40.5-4.15 55.05-4.15 55.05 0 35.95 0Z" opacity="1" transform="matrix(1,0,0,1,0,0)" fill="#ee3e38" class="undefined-text-0" data-fill-palette-color="primary" id="text-0"></path></svg></g></svg></g></svg></g></svg></g></svg></g></svg></g></svg></g><g><path d="M235.974 0c68.262 0 123.6 55.338 123.6 123.6 0 68.262-55.338 123.6-123.6 123.6-30.402 0-58.24-10.976-79.768-29.183l11.147 0c19.26 14.022 42.974 22.294 68.621 22.295 64.458 0 116.712-52.254 116.711-116.712 0-64.458-52.254-116.712-116.711-116.712-25.647 0-49.361 8.272-68.621 22.295l-11.147 0c21.528-18.206 49.366-29.183 79.768-29.183z" fill="#ee3e38" stroke="transparent" data-fill-palette-color="tertiary"></path></g></svg></g><defs></defs></svg><rect width="395.52" height="247.2" fill="none" stroke="none" visibility="hidden"></rect></g></svg></g></svg>